<?xml version="1.0" encoding="UTF-8" standalone="no"?>
<svg
   xmlns:dc="http://purl.org/dc/elements/1.1/"
   xmlns:cc="http://creativecommons.org/ns#"
   xmlns:rdf="http://www.w3.org/1999/02/22-rdf-syntax-ns#"
   xmlns:svg="http://www.w3.org/2000/svg"
   xmlns="http://www.w3.org/2000/svg"
   xmlns:sodipodi="http://sodipodi.sourceforge.net/DTD/sodipodi-0.dtd"
   xmlns:inkscape="http://www.inkscape.org/namespaces/inkscape"
   inkscape:export-ydpi="96"
   inkscape:export-xdpi="96"
   inkscape:export-filename="C:\Users\Max\Documents\Code\anchor\public\static\favicon.png"
   sodipodi:docname="favicon.svg"
   inkscape:version="1.0 (4035a4fb49, 2020-05-01)"
   id="svg858"
   version="1.1"
   viewBox="0 0 128 128"
   height="128mm"
   width="128mm">
  <defs
     id="defs852">
    <clipPath
       clipPathUnits="userSpaceOnUse"
       id="clipPath5638-1">
      <rect
         style="color:#000000;clip-rule:nonzero;display:inline;overflow:visible;visibility:visible;opacity:1;isolation:auto;mix-blend-mode:normal;color-interpolation:sRGB;color-interpolation-filters:linearRGB;solid-color:#000000;solid-opacity:1;vector-effect:none;fill:#000000;fill-opacity:1;fill-rule:nonzero;stroke:none;stroke-width:5;stroke-linecap:butt;stroke-linejoin:miter;stroke-miterlimit:4;stroke-dasharray:none;stroke-dashoffset:0;stroke-opacity:1;marker:none;paint-order:fill markers stroke;color-rendering:auto;image-rendering:auto;shape-rendering:auto;text-rendering:auto;enable-background:accumulate"
         id="rect5640-6"
         width="625"
         height="792"
         x="5.4466233e-07"
         y="0" />
    </clipPath>
  </defs>
  <sodipodi:namedview
     borderlayer="true"
     inkscape:snap-bbox-edge-midpoints="false"
     inkscape:snap-nodes="false"
     inkscape:pagecheckerboard="false"
     inkscape:bbox-nodes="true"
     inkscape:snap-bbox="true"
     inkscape:window-maximized="0"
     inkscape:window-y="163"
     inkscape:window-x="312"
     inkscape:window-height="1198"
     inkscape:window-width="1274"
     inkscape:snap-page="true"
     inkscape:showpageshadow="false"
     showborder="true"
     showgrid="false"
     inkscape:document-rotation="0"
     inkscape:current-layer="layer1"
     inkscape:document-units="px"
     inkscape:cy="219.79782"
     inkscape:cx="64.650929"
     inkscape:zoom="0.70710678"
     inkscape:pageshadow="2"
     inkscape:pageopacity="1"
     borderopacity="1.0"
     bordercolor="#666666"
     pagecolor="#000000"
     id="base" />
  <metadata
     id="metadata855">
    <rdf:RDF>
      <cc:Work
         rdf:about="">
        <dc:format>image/svg+xml</dc:format>
        <dc:type
           rdf:resource="http://purl.org/dc/dcmitype/StillImage" />
        <dc:title></dc:title>
      </cc:Work>
    </rdf:RDF>
  </metadata>
  <g
     id="layer1"
     inkscape:groupmode="layer"
     inkscape:label="Layer 1">
    <path
       inkscape:export-ydpi="96"
       inkscape:export-xdpi="96"
       inkscape:export-filename="C:\Users\Max\Documents\Code\anchor\public\static\path1566.png"
       inkscape:transform-center-y="-1.6557977"
       inkscape:transform-center-x="3.2934473"
       d="M 155.31982,13.13158 93.772273,55.433344 168.42964,53.479449 94.997478,67.090391 163.9951,95.671305 91.375411,78.237969 142.78297,132.41179 83.532359,86.948561 108.46102,157.34815 72.824458,91.716026 66.963829,166.16865 61.103201,91.716026 25.466641,157.34815 50.395299,86.948561 -8.8553072,132.41179 42.552247,78.23797 -30.067438,95.671306 38.93018,67.090392 -34.501981,53.47945 40.155385,55.433345 -21.392163,13.131581 46.016013,45.282438 6.9952078,-18.395789 55.498709,38.392856 45.751698,-35.651291 66.963829,35.95587 88.175959,-35.651291 78.428948,38.392856 126.93245,-18.39579 87.911645,45.282438 Z"
       inkscape:randomized="0"
       inkscape:rounded="0"
       inkscape:flatsided="false"
       sodipodi:arg2="-0.31415927"
       sodipodi:arg1="-0.52359878"
       sodipodi:r2="28.188066"
       sodipodi:r1="102.02471"
       sodipodi:cy="64.143936"
       sodipodi:cx="66.963829"
       sodipodi:sides="15"
       id="path1566"
       style="fill:#ffffff;fill-opacity:1;stroke-width:1.05833;stroke-linecap:round;paint-order:fill markers stroke;stop-color:#000000"
       sodipodi:type="star" />
    <path
       sodipodi:nodetypes="scscs"
       style="color:#000000;clip-rule:nonzero;display:inline;overflow:visible;visibility:visible;opacity:1;isolation:auto;mix-blend-mode:normal;color-interpolation:sRGB;color-interpolation-filters:linearRGB;solid-color:#000000;solid-opacity:1;vector-effect:none;fill:#ffffff;fill-opacity:1;fill-rule:nonzero;stroke:none;stroke-width:1.38676;stroke-linecap:round;stroke-linejoin:miter;stroke-miterlimit:4;stroke-dasharray:none;stroke-dashoffset:0;stroke-opacity:1;marker:none;paint-order:fill markers stroke;color-rendering:auto;image-rendering:auto;shape-rendering:auto;text-rendering:auto;enable-background:accumulate"
       d="m 64.000198,25.960993 c -45.714894,0 -70.3317278,41.64876 -70.3317278,41.64876 0,0 23.6461118,34.492627 70.3317278,34.492627 46.685612,0 70.331332,-34.492627 70.331332,-34.492627 0,0 -24.61644,-41.64876 -70.331332,-41.64876 z"
       id="path879-3-6-7-5-3-2" />
    <g
       style="stroke-width:1.29191"
       transform="matrix(0.20479999,0,0,0.20479999,1.2890346e-6,-0.30371943)"
       id="g5636"
       clip-path="url(#clipPath5638-1)">
      <g
         style="stroke-width:1.29191"
         id="g5557"
         transform="translate(-4.9746)">
        <path
           style="color:#000000;clip-rule:nonzero;display:inline;overflow:visible;visibility:visible;opacity:1;isolation:auto;mix-blend-mode:normal;color-interpolation:sRGB;color-interpolation-filters:linearRGB;solid-color:#000000;solid-opacity:1;vector-effect:none;fill:#000000;fill-opacity:1;fill-rule:nonzero;stroke:none;stroke-width:6.77128;stroke-linecap:round;stroke-linejoin:miter;stroke-miterlimit:4;stroke-dasharray:none;stroke-dashoffset:0;stroke-opacity:1;marker:none;paint-order:fill markers stroke;color-rendering:auto;image-rendering:auto;shape-rendering:auto;text-rendering:auto;enable-background:accumulate"
           d="m 317.47461,216.24414 a 85.192451,85.192451 0 0 0 -85.19336,85.19141 85.192451,85.192451 0 0 0 85.19336,85.19336 85.192451,85.192451 0 0 0 85.19141,-85.19336 85.192451,85.192451 0 0 0 -85.19141,-85.19141 z m 0,24.32227 a 60.869179,60.869179 0 0 1 60.86914,60.86914 60.869179,60.869179 0 0 1 -60.86914,60.86914 60.869179,60.869179 0 0 1 -60.86914,-60.86914 60.869179,60.869179 0 0 1 60.86914,-60.86914 z"
           id="path879-3" />
        <circle
           style="color:#000000;clip-rule:nonzero;display:inline;overflow:visible;visibility:visible;opacity:1;isolation:auto;mix-blend-mode:normal;color-interpolation:sRGB;color-interpolation-filters:linearRGB;solid-color:#000000;solid-opacity:1;vector-effect:none;fill:#000000;fill-opacity:1;fill-rule:nonzero;stroke:none;stroke-width:6.77128;stroke-linecap:round;stroke-linejoin:miter;stroke-miterlimit:4;stroke-dasharray:none;stroke-dashoffset:0;stroke-opacity:1;marker:none;paint-order:fill markers stroke;color-rendering:auto;image-rendering:auto;shape-rendering:auto;text-rendering:auto;enable-background:accumulate"
           id="path879"
           cx="317.47437"
           cy="301.43631"
           r="50.783916" />
        <path
           style="color:#000000;clip-rule:nonzero;display:inline;overflow:visible;visibility:visible;opacity:1;isolation:auto;mix-blend-mode:normal;color-interpolation:sRGB;color-interpolation-filters:linearRGB;solid-color:#000000;solid-opacity:1;vector-effect:none;fill:#000000;fill-opacity:1;fill-rule:nonzero;stroke:none;stroke-width:6.77128;stroke-linecap:round;stroke-linejoin:miter;stroke-miterlimit:4;stroke-dasharray:none;stroke-dashoffset:0;stroke-opacity:1;marker:none;paint-order:fill markers stroke;color-rendering:auto;image-rendering:auto;shape-rendering:auto;text-rendering:auto;enable-background:accumulate"
           d="M 317.4746,137.20342 A 164.2326,164.2326 0 0 0 153.24245,301.43554 164.2326,164.2326 0 0 0 317.4746,465.66961 164.2326,164.2326 0 0 0 481.70675,301.43554 164.2326,164.2326 0 0 0 317.4746,137.20342 Z m 0,26.82703 A 137.40509,137.40509 0 0 1 454.87967,301.43554 137.40509,137.40509 0 0 1 317.4746,438.84064 137.40509,137.40509 0 0 1 180.06951,301.43554 137.40509,137.40509 0 0 1 317.4746,164.03045 Z"
           id="path879-3-6-7" />
        <path
           style="color:#000000;clip-rule:nonzero;display:inline;overflow:visible;visibility:visible;opacity:1;isolation:auto;mix-blend-mode:normal;color-interpolation:sRGB;color-interpolation-filters:linearRGB;solid-color:#000000;solid-opacity:1;vector-effect:none;fill:none;fill-opacity:0.364706;fill-rule:nonzero;stroke:#ffffff;stroke-width:11.6272;stroke-linecap:round;stroke-linejoin:miter;stroke-miterlimit:4;stroke-dasharray:none;stroke-dashoffset:0;stroke-opacity:0.945946;marker:none;paint-order:fill markers stroke;color-rendering:auto;image-rendering:auto;shape-rendering:auto;text-rendering:auto;enable-background:accumulate"
           id="path879-6"
           d="m 279.39757,297.48231 a 38.041321,38.041321 0 0 1 22.7698,-31.4964 38.041321,38.041321 0 0 1 38.54978,4.93981" />
      </g>
      <path
         id="path879-3-6-7-5-5-6"
         d="m 312.50097,158.24808 c -169.99805,0 -299.739833,149.82378 -322.693071,176.72883 56.692895,-46.92523 174.959311,-132.82268 322.693071,-132.82268 147.73609,0 266.00338,85.90031 322.69505,132.82506 C 612.24842,308.08035 482.50377,158.24808 312.50097,158.24808 Z"
         style="color:#000000;clip-rule:nonzero;display:inline;overflow:visible;visibility:visible;opacity:1;isolation:auto;mix-blend-mode:normal;color-interpolation:sRGB;color-interpolation-filters:linearRGB;solid-color:#000000;solid-opacity:1;vector-effect:none;fill:#ffffff;fill-opacity:1;fill-rule:nonzero;stroke:none;stroke-width:7.52623;stroke-linecap:round;stroke-linejoin:miter;stroke-miterlimit:4;stroke-dasharray:none;stroke-dashoffset:0;stroke-opacity:1;marker:none;paint-order:fill markers stroke;color-rendering:auto;image-rendering:auto;shape-rendering:auto;text-rendering:auto;enable-background:accumulate" />
      <path
         id="path879-3-6-7-5-5"
         d="m 312.50097,191.00269 c -169.99805,0 -299.739833,122.05608 -322.693071,143.97467 56.692895,-38.22832 168.959361,-108.20589 322.693071,-108.20589 153.73614,0 266.00338,69.9799 322.69505,108.20782 -22.9476,-21.91361 -152.69225,-143.9766 -322.69505,-143.9766 z"
         style="color:#000000;clip-rule:nonzero;display:inline;overflow:visible;visibility:visible;opacity:1;isolation:auto;mix-blend-mode:normal;color-interpolation:sRGB;color-interpolation-filters:linearRGB;solid-color:#000000;solid-opacity:1;vector-effect:none;fill:#000000;fill-opacity:1;fill-rule:nonzero;stroke:none;stroke-width:6.79308;stroke-linecap:round;stroke-linejoin:miter;stroke-miterlimit:4;stroke-dasharray:none;stroke-dashoffset:0;stroke-opacity:1;marker:none;paint-order:fill markers stroke;color-rendering:auto;image-rendering:auto;shape-rendering:auto;text-rendering:auto;enable-background:accumulate" />
      <path
         id="path879-3-6-7-5-3"
         d="m 312.50098,128.24568 c -223.217269,0 -343.41666,203.3631 -343.41666,203.3631 0,0 115.459539,168.42103 343.41666,168.42103 227.95712,0 343.4147,-168.42103 343.4147,-168.42103 0,0 -120.19744,-203.3631 -343.4147,-203.3631 z m 0,36.95884 c 185.83273,0 314.26104,162.18628 314.26104,162.18628 0,0 -124.60969,125.83452 -314.26104,125.83452 -189.65136,0 -314.2629905,-125.83452 -314.2629905,-125.83452 0,0 128.4302405,-162.18628 314.2629905,-162.18628 z"
         style="color:#000000;clip-rule:nonzero;display:inline;overflow:visible;visibility:visible;opacity:1;isolation:auto;mix-blend-mode:normal;color-interpolation:sRGB;color-interpolation-filters:linearRGB;solid-color:#000000;solid-opacity:1;vector-effect:none;fill:#000000;fill-opacity:1;fill-rule:nonzero;stroke:none;stroke-width:6.77128;stroke-linecap:round;stroke-linejoin:miter;stroke-miterlimit:4;stroke-dasharray:none;stroke-dashoffset:0;stroke-opacity:1;marker:none;paint-order:fill markers stroke;color-rendering:auto;image-rendering:auto;shape-rendering:auto;text-rendering:auto;enable-background:accumulate" />
    </g>
  </g>
</svg>
